<svg width="2774" height="15717" viewBox="0 0 2774 15717" fill="none" xmlns="http://www.w3.org/2000/svg">
<g clip-path="url(#clip0_27_22)">
<circle cx="1820.5" cy="474.5" r="474.5" fill="url(#paint0_linear_27_22)"/>
<circle cx="1972.5" cy="6306.5" r="302.5" transform="rotate(90 1972.5 6306.5)" fill="url(#paint1_linear_27_22)"/>
<circle cx="620.5" cy="1141.5" r="339.5" fill="url(#paint2_linear_27_22)"/>
<circle cx="930" cy="746" r="336" stroke="url(#paint3_linear_27_22)" stroke-width="2"/>
<circle cx="1498" cy="2936" r="486" stroke="url(#paint4_linear_27_22)" stroke-width="2"/>
<circle cx="1776" cy="968" r="336" stroke="url(#paint5_linear_27_22)" stroke-width="2"/>
<circle cx="722.921" cy="8043.92" r="511.183" transform="rotate(-135 722.921 8043.92)" fill="url(#paint6_linear_27_22)"/>
<circle cx="2077.8" cy="13183.8" r="555.266" transform="rotate(72.6167 2077.8 13183.8)" fill="url(#paint7_linear_27_22)"/>
<circle cx="658.863" cy="15257.9" r="374.66" transform="rotate(165 658.863 15257.9)" fill="url(#paint8_linear_27_22)"/>
<circle cx="1639" cy="4641" r="841" stroke="url(#paint9_linear_27_22)" stroke-width="2"/>
<circle cx="1797" cy="7546" r="606" stroke="url(#paint10_linear_27_22)" stroke-width="2"/>
<circle cx="815" cy="11416.2" r="766" stroke="url(#paint11_linear_27_22)" stroke-width="2"/>
<circle cx="822.42" cy="9273.58" r="406.091" transform="rotate(30 822.42 9273.58)" stroke="url(#paint12_linear_27_22)" stroke-width="2"/>
<circle cx="1832.58" cy="10081.6" r="693.318" transform="rotate(-105 1832.58 10081.6)" stroke="url(#paint13_linear_27_22)" stroke-width="2"/>
<circle cx="1423" cy="14216" r="766" stroke="url(#paint14_linear_27_22)" stroke-width="2"/>
</g>
<defs>
<linearGradient id="paint0_linear_27_22" x1="2162.2" y1="62.0791" x2="1511.18" y2="848.054" gradientUnits="userSpaceOnUse">
<stop stop-color="#FEFA12"/>
<stop offset="1" stop-color="#FE752B"/>
</linearGradient>
<linearGradient id="paint1_linear_27_22" x1="2429" y1="5825" x2="1732" y2="6433.5" gradientUnits="userSpaceOnUse">
<stop stop-color="#FEFA12"/>
<stop offset="1" stop-color="#FE752B"/>
</linearGradient>
<linearGradient id="paint2_linear_27_22" x1="368.3" y1="1426.53" x2="908.515" y2="874.377" gradientUnits="userSpaceOnUse">
<stop stop-color="#FE752B"/>
<stop offset="1" stop-color="#FEFA12"/>
</linearGradient>
<linearGradient id="paint3_linear_27_22" x1="930" y1="409" x2="930" y2="1083" gradientUnits="userSpaceOnUse">
<stop stop-color="#FE752B"/>
<stop offset="1" stop-color="#FEFA12"/>
</linearGradient>
<linearGradient id="paint4_linear_27_22" x1="1498" y1="2449" x2="1498" y2="3423" gradientUnits="userSpaceOnUse">
<stop stop-color="#FE752B"/>
<stop offset="1" stop-color="#FEFA12"/>
</linearGradient>
<linearGradient id="paint5_linear_27_22" x1="1776" y1="631" x2="1776" y2="1305" gradientUnits="userSpaceOnUse">
<stop stop-color="#FE752B"/>
<stop offset="1" stop-color="#FEFA12"/>
</linearGradient>
<linearGradient id="paint6_linear_27_22" x1="343.186" y1="8473.09" x2="1156.58" y2="7641.72" gradientUnits="userSpaceOnUse">
<stop stop-color="#FE752B"/>
<stop offset="1" stop-color="#FEFA12"/>
</linearGradient>
<linearGradient id="paint7_linear_27_22" x1="1665.32" y1="13650" x2="2548.86" y2="12746.9" gradientUnits="userSpaceOnUse">
<stop stop-color="#FE752B"/>
<stop offset="1" stop-color="#FEFA12"/>
</linearGradient>
<linearGradient id="paint8_linear_27_22" x1="380.544" y1="15572.4" x2="976.707" y2="14963.1" gradientUnits="userSpaceOnUse">
<stop stop-color="#FE752B"/>
<stop offset="1" stop-color="#FEFA12"/>
</linearGradient>
<linearGradient id="paint9_linear_27_22" x1="1639" y1="3799" x2="1639" y2="5483" gradientUnits="userSpaceOnUse">
<stop stop-color="#FE752B"/>
<stop offset="1" stop-color="#FEFA12"/>
</linearGradient>
<linearGradient id="paint10_linear_27_22" x1="1797" y1="6939" x2="1797" y2="8153" gradientUnits="userSpaceOnUse">
<stop stop-color="#FE752B"/>
<stop offset="1" stop-color="#FEFA12"/>
</linearGradient>
<linearGradient id="paint11_linear_27_22" x1="815" y1="10649.2" x2="815" y2="12183.2" gradientUnits="userSpaceOnUse">
<stop stop-color="#FE752B"/>
<stop offset="1" stop-color="#FEFA12"/>
</linearGradient>
<linearGradient id="paint12_linear_27_22" x1="822.42" y1="8866.49" x2="822.42" y2="9680.67" gradientUnits="userSpaceOnUse">
<stop stop-color="#FE752B"/>
<stop offset="1" stop-color="#FEFA12"/>
</linearGradient>
<linearGradient id="paint13_linear_27_22" x1="1832.58" y1="9387.26" x2="1832.58" y2="10775.9" gradientUnits="userSpaceOnUse">
<stop stop-color="#FE752B"/>
<stop offset="1" stop-color="#FEFA12"/>
</linearGradient>
<linearGradient id="paint14_linear_27_22" x1="1423" y1="13449" x2="1423" y2="14983" gradientUnits="userSpaceOnUse">
<stop stop-color="#FE752B"/>
<stop offset="1" stop-color="#FEFA12"/>
</linearGradient>
<clipPath id="clip0_27_22">
<rect width="2773.6" height="15716.7" fill="white"/>
</clipPath>
</defs>
</svg>
